# xmcd
#
# Track frame offsets:
# 150
# 18222
# 33711
# 53912
# 79497
# 96219
# 114167
# 133390
# 145241
# 157950
# 173750
#
# Disc length: 2576 seconds
#
# Revision: 0
# Processed by: cddbd v1.5.2PL0 Copyright (c) Steve Scherf et al.
# Submitted via: Audion 3.0.2 (http://www.panic.com/audion/)
#
DISCID=900a0e0b
DTITLE=Alison Moyet - The Turn
DYEAR=1900
DGENRE=
TTITLE0=One More Time
TTITLE1=Anytime At All
TTITLE2=Man In The Wings
TTITLE3=Can't Say It Like I Mean It
TTITLE4=It's Not The Thing Henry
TTITLE5=Fire
TTITLE6=Sharpest Corner (Hollow)
TTITLE7=World Without End
TTITLE8=Home
TTITLE9=Smaller
TTITLE10=A Guy Like You
EXTD=
EXTT0=
EXTT1=
EXTT2=
EXTT3=
EXTT4=
EXTT5=
EXTT6=
EXTT7=
EXTT8=
EXTT9=
EXTT10=
PLAYORDER=
